HIERARCHY
ROOT newVegas:Hips
{
	OFFSET 0.000000 96.479958 0.000000
	CHANNELS 6 Xposition Yposition Zposition Xrotation Yrotation Zrotation
	JOINT newVegas:Pelvis
	{
		OFFSET 0.000000 0.000000 0.000000
		CHANNELS 3 Xrotation Yrotation Zrotation
		JOINT newVegas:LeftUpLeg
		{
			OFFSET 18.735201 -5.666702 -4.541200
			CHANNELS 3 Xrotation Yrotation Zrotation
			JOINT newVegas:LeftLeg
			{
				OFFSET -0.021200 -31.938179 0.493100
				CHANNELS 3 Xrotation Yrotation Zrotation
				JOINT newVegas:LeftFoot
				{
					OFFSET 0.021200 -31.938179 -4.336299
					CHANNELS 3 Xrotation Yrotation Zrotation
					JOINT newVegas:LeftToeBase
					{
						OFFSET 0.943001 -26.722000 15.023500
						CHANNELS 3 Xrotation Yrotation Zrotation
						End Site
						{
							OFFSET 0.000000 30.670183 0.000000
						}
					}
				}
				JOINT newVegas:Left_PantLeg
				{
					OFFSET 0.663870 -9.044666 -1.108900
					CHANNELS 3 Xrotation Yrotation Zrotation
					End Site
					{
						OFFSET 1.415995 20.635357 0.000000
					}
				}
			}
		}
		JOINT newVegas:RightUpLeg
		{
			OFFSET -18.735201 -5.666702 -4.541200
			CHANNELS 3 Xrotation Yrotation Zrotation
			JOINT newVegas:RightLeg
			{
				OFFSET 0.018946 -31.938133 0.493100
				CHANNELS 3 Xrotation Yrotation Zrotation
				JOINT newVegas:RightFoot
				{
					OFFSET -0.018946 -31.938126 -4.336299
					CHANNELS 3 Xrotation Yrotation Zrotation
					JOINT newVegas:RightToeBase
					{
						OFFSET -0.943001 -26.722004 15.023500
						CHANNELS 3 Xrotation Yrotation Zrotation
						End Site
						{
							OFFSET 0.000000 30.670187 0.000000
						}
					}
				}
				JOINT newVegas:Right_PantLeg
				{
					OFFSET -0.661674 -9.044716 -1.108900
					CHANNELS 3 Xrotation Yrotation Zrotation
					End Site
					{
						OFFSET -1.415958 20.635269 0.000000
					}
				}
			}
		}
	}
	JOINT newVegas:Spine
	{
		OFFSET 0.000000 10.199997 -0.299500
		CHANNELS 3 Xrotation Yrotation Zrotation
		JOINT newVegas:Spine1
		{
			OFFSET 0.000000 11.900002 -1.516600
			CHANNELS 3 Xrotation Yrotation Zrotation
			JOINT newVegas:Spine2
			{
				OFFSET 0.000000 13.600006 -2.842500
				CHANNELS 3 Xrotation Yrotation Zrotation
				JOINT newVegas:Neck
				{
					OFFSET 0.000000 9.624100 -2.890100
					CHANNELS 3 Xrotation Yrotation Zrotation
					JOINT newVegas:Head
					{
						OFFSET 0.000000 14.068802 -1.351900
						CHANNELS 3 Xrotation Yrotation Zrotation
						JOINT newVegas:Hair_Back
						{
							OFFSET 0.000000 3.231903 -17.524799
							CHANNELS 3 Xrotation Yrotation Zrotation
							End Site
							{
								OFFSET 0.000000 19.849884 0.000000
							}
						}
						JOINT newVegas:Hair_Front
						{
							OFFSET 0.000000 31.260406 4.573800
							CHANNELS 3 Xrotation Yrotation Zrotation
							JOINT newVegas:Hair_Front1
							{
								OFFSET 0.000000 2.284103 11.993300
								CHANNELS 3 Xrotation Yrotation Zrotation
								JOINT newVegas:Hair_Front2
								{
									OFFSET 0.000000 2.284103 11.993300
									CHANNELS 3 Xrotation Yrotation Zrotation
									End Site
									{
										OFFSET 0.000000 12.208862 0.000000
									}
								}
							}
						}
						JOINT newVegas:Jowel
						{
							OFFSET 0.000000 -7.458206 6.864100
							CHANNELS 3 Xrotation Yrotation Zrotation
							End Site
							{
								OFFSET 0.000000 19.849884 0.000000
							}
						}
					}
				}
				JOINT newVegas:LeftShoulder
				{
					OFFSET 15.263000 10.923401 -0.547700
					CHANNELS 3 Xrotation Yrotation Zrotation
					JOINT newVegas:LeftArm
					{
						OFFSET 25.438599 -2.830597 -13.032500
						CHANNELS 3 Xrotation Yrotation Zrotation
						JOINT newVegas:LeftForeArm
						{
							OFFSET 29.960503 0.000000 0.000000
							CHANNELS 3 Xrotation Yrotation Zrotation
							JOINT newVegas:LeftHand
							{
								OFFSET 27.849251 0.000000 0.000000
								CHANNELS 3 Xrotation Yrotation Zrotation
								JOINT newVegas:LeftHandThumb1
								{
									OFFSET 4.487587 -3.305161 6.305391
									CHANNELS 3 Xrotation Yrotation Zrotation
									JOINT newVegas:LeftHandThumb2
									{
										OFFSET 5.480453 -3.164139 3.164143
										CHANNELS 3 Xrotation Yrotation Zrotation
										JOINT newVegas:LeftHandThumb3
										{
											OFFSET 5.159721 -2.978973 2.978967
											CHANNELS 3 Xrotation Yrotation Zrotation
											End Site
											{
												OFFSET 2.494507 5.926697 1.738678
											}
										}
									}
								}
								JOINT newVegas:LeftHandIndex1
								{
									OFFSET 18.578728 -0.527832 5.208049
									CHANNELS 3 Xrotation Yrotation Zrotation
									JOINT newVegas:LeftHandIndex2
									{
										OFFSET 3.192009 0.000000 0.000000
										CHANNELS 3 Xrotation Yrotation Zrotation
										JOINT newVegas:LeftHandIndex3
										{
											OFFSET 3.835129 0.000000 0.000000
											CHANNELS 3 Xrotation Yrotation Zrotation
											End Site
											{
												OFFSET -0.034599 3.816971 0.371180
											}
										}
									}
								}
								JOINT newVegas:LeftHandMiddle1
								{
									OFFSET 18.476105 0.000000 0.000000
									CHANNELS 3 Xrotation Yrotation Zrotation
									JOINT newVegas:LeftHandMiddle2
									{
										OFFSET 3.324875 0.000000 0.000000
										CHANNELS 3 Xrotation Yrotation Zrotation
										JOINT newVegas:LeftHandMiddle3
										{
											OFFSET 4.596550 0.000000 0.000000
											CHANNELS 3 Xrotation Yrotation Zrotation
											End Site
											{
												OFFSET 0.057701 4.578827 0.399218
											}
										}
									}
								}
								JOINT newVegas:LeftHandRing1
								{
									OFFSET 17.732719 0.121887 -4.201567
									CHANNELS 3 Xrotation Yrotation Zrotation
									JOINT newVegas:LeftHandRing2
									{
										OFFSET 2.733170 0.000000 0.000000
										CHANNELS 3 Xrotation Yrotation Zrotation
										JOINT newVegas:LeftHandRing3
										{
											OFFSET 3.178268 0.000000 0.000000
											CHANNELS 3 Xrotation Yrotation Zrotation
											End Site
											{
												OFFSET 0.119102 3.170624 0.185394
											}
										}
									}
								}
								JOINT newVegas:LeftHandPinky1
								{
									OFFSET 15.989624 -0.606689 -7.535461
									CHANNELS 3 Xrotation Yrotation Zrotation
									JOINT newVegas:LeftHandPinky2
									{
										OFFSET 2.538986 0.000000 0.000000
										CHANNELS 3 Xrotation Yrotation Zrotation
										JOINT newVegas:LeftHandPinky3
										{
											OFFSET 2.593102 0.000000 0.000000
											CHANNELS 3 Xrotation Yrotation Zrotation
											End Site
											{
												OFFSET -0.150902 2.584198 0.152708
											}
										}
									}
								}
							}
							JOINT newVegas:Left_Sleeve
							{
								OFFSET 0.267448 -0.649796 0.577675
								CHANNELS 3 Xrotation Yrotation Zrotation
								End Site
								{
									OFFSET 0.000000 15.991241 0.000000
								}
							}
							JOINT newVegas:Left_CapeC
							{
								OFFSET 15.715958 -8.608795 -6.935905
								CHANNELS 3 Xrotation Yrotation Zrotation
								JOINT newVegas:Left_CapeC1
								{
									OFFSET 0.000000 -8.688499 0.000000
									CHANNELS 3 Xrotation Yrotation Zrotation
									End Site
									{
										OFFSET 0.000000 8.688499 0.000000
									}
								}
							}
						}
						JOINT newVegas:Left_CapeB
						{
							OFFSET 26.118385 -8.608795 -7.079235
							CHANNELS 3 Xrotation Yrotation Zrotation
							JOINT newVegas:Left_CapeB1
							{
								OFFSET 0.000000 -8.688499 0.000000
								CHANNELS 3 Xrotation Yrotation Zrotation
								End Site
								{
									OFFSET 0.000000 8.688499 0.000000
								}
							}
						}
						JOINT newVegas:Left_CapeA
						{
							OFFSET 5.115639 -8.608795 -10.395809
							CHANNELS 3 Xrotation Yrotation Zrotation
							JOINT newVegas:Left_CapeA1
							{
								OFFSET 0.000000 -8.688499 0.000000
								CHANNELS 3 Xrotation Yrotation Zrotation
								End Site
								{
									OFFSET 0.000000 8.688499 0.000000
								}
							}
						}
					}
				}
				JOINT newVegas:RightShoulder
				{
					OFFSET -15.263000 10.923401 -0.547700
					CHANNELS 3 Xrotation Yrotation Zrotation
					JOINT newVegas:RightArm
					{
						OFFSET -25.438599 -2.830597 -13.032500
						CHANNELS 3 Xrotation Yrotation Zrotation
						JOINT newVegas:RightForeArm
						{
							OFFSET -29.960503 0.000000 0.000000
							CHANNELS 3 Xrotation Yrotation Zrotation
							JOINT newVegas:RightHand
							{
								OFFSET -27.849251 0.000000 0.000000
								CHANNELS 3 Xrotation Yrotation Zrotation
								JOINT newVegas:RightHandThumb1
								{
									OFFSET -4.487587 -3.305161 6.305391
									CHANNELS 3 Xrotation Yrotation Zrotation
									JOINT newVegas:RightHandThumb2
									{
										OFFSET -5.480453 -3.164139 3.164143
										CHANNELS 3 Xrotation Yrotation Zrotation
										JOINT newVegas:RightHandThumb3
										{
											OFFSET -5.159721 -2.978973 2.978967
											CHANNELS 3 Xrotation Yrotation Zrotation
											End Site
											{
												OFFSET -2.494507 5.926697 1.738678
											}
										}
									}
								}
								JOINT newVegas:RightHandIndex1
								{
									OFFSET -18.578728 -0.527832 5.208049
									CHANNELS 3 Xrotation Yrotation Zrotation
									JOINT newVegas:RightHandIndex2
									{
										OFFSET -3.192009 0.000000 0.000000
										CHANNELS 3 Xrotation Yrotation Zrotation
										JOINT newVegas:RightHandIndex3
										{
											OFFSET -3.835129 0.000000 0.000000
											CHANNELS 3 Xrotation Yrotation Zrotation
											End Site
											{
												OFFSET 0.034599 3.816971 0.371180
											}
										}
									}
								}
								JOINT newVegas:RightHandMiddle1
								{
									OFFSET -18.476105 0.000000 0.000000
									CHANNELS 3 Xrotation Yrotation Zrotation
									JOINT newVegas:RightHandMiddle2
									{
										OFFSET -3.324875 0.000000 0.000000
										CHANNELS 3 Xrotation Yrotation Zrotation
										JOINT newVegas:RightHandMiddle3
										{
											OFFSET -4.596550 0.000000 0.000000
											CHANNELS 3 Xrotation Yrotation Zrotation
											End Site
											{
												OFFSET -0.057701 4.578827 0.399218
											}
										}
									}
								}
								JOINT newVegas:RightHandRing1
								{
									OFFSET -17.732719 0.121887 -4.201567
									CHANNELS 3 Xrotation Yrotation Zrotation
									JOINT newVegas:RightHandRing2
									{
										OFFSET -2.733170 0.000000 0.000000
										CHANNELS 3 Xrotation Yrotation Zrotation
										JOINT newVegas:RightHandRing3
										{
											OFFSET -3.178268 0.000000 0.000000
											CHANNELS 3 Xrotation Yrotation Zrotation
											End Site
											{
												OFFSET -0.119102 3.170624 0.185394
											}
										}
									}
								}
								JOINT newVegas:RightHandPinky1
								{
									OFFSET -15.989624 -0.606689 -7.535461
									CHANNELS 3 Xrotation Yrotation Zrotation
									JOINT newVegas:RightHandPinky2
									{
										OFFSET -2.538986 0.000000 0.000000
										CHANNELS 3 Xrotation Yrotation Zrotation
										JOINT newVegas:RightHandPinky3
										{
											OFFSET -2.593102 0.000000 0.000000
											CHANNELS 3 Xrotation Yrotation Zrotation
											End Site
											{
												OFFSET 0.150902 2.584198 0.152708
											}
										}
									}
								}
							}
							JOINT newVegas:Right_CapeC
							{
								OFFSET -15.715958 -8.608795 -6.935905
								CHANNELS 3 Xrotation Yrotation Zrotation
								JOINT newVegas:Right_CapeC1
								{
									OFFSET 0.000000 -8.688499 0.000000
									CHANNELS 3 Xrotation Yrotation Zrotation
									End Site
									{
										OFFSET 0.000000 8.688499 0.000000
									}
								}
							}
							JOINT newVegas:Right_Sleeve
							{
								OFFSET -0.267448 -0.649994 0.577675
								CHANNELS 3 Xrotation Yrotation Zrotation
								End Site
								{
									OFFSET 0.000000 15.991302 0.000000
								}
							}
						}
						JOINT newVegas:Right_CapeA
						{
							OFFSET -5.115540 -8.608795 -10.395824
							CHANNELS 3 Xrotation Yrotation Zrotation
							JOINT newVegas:Right_CapeA1
							{
								OFFSET 0.000000 -8.688499 0.000000
								CHANNELS 3 Xrotation Yrotation Zrotation
								End Site
								{
									OFFSET 0.000000 8.688499 0.000000
								}
							}
						}
						JOINT newVegas:Right_CapeB
						{
							OFFSET -26.118187 -8.608795 -7.079266
							CHANNELS 3 Xrotation Yrotation Zrotation
							JOINT newVegas:Right_CapeB1
							{
								OFFSET 0.000000 -8.688499 0.000000
								CHANNELS 3 Xrotation Yrotation Zrotation
								End Site
								{
									OFFSET 0.000000 8.688499 0.000000
								}
							}
						}
					}
				}
				JOINT newVegas:Left_Collar
				{
					OFFSET 18.625099 8.655502 8.828100
					CHANNELS 3 Xrotation Yrotation Zrotation
					JOINT newVegas:Left_Collar1
					{
						OFFSET 14.783401 10.540405 -1.259500
						CHANNELS 3 Xrotation Yrotation Zrotation
						End Site
						{
							OFFSET 0.000000 18.199875 0.000000
						}
					}
				}
				JOINT newVegas:Collar_Back
				{
					OFFSET 0.000000 15.630707 -20.132601
					CHANNELS 3 Xrotation Yrotation Zrotation
					End Site
					{
						OFFSET 0.000000 22.523010 0.000000
					}
				}
				JOINT newVegas:Left_Peck
				{
					OFFSET 17.239599 -5.132599 25.482599
					CHANNELS 3 Xrotation Yrotation Zrotation
					End Site
					{
						OFFSET 0.000000 22.523010 0.000000
					}
				}
				JOINT newVegas:Right_Peck
				{
					OFFSET -17.239599 -5.132202 25.482599
					CHANNELS 3 Xrotation Yrotation Zrotation
					End Site
					{
						OFFSET 0.000000 22.523010 0.000000
					}
				}
				JOINT newVegas:Right_Collar
				{
					OFFSET -18.625099 8.655792 8.828100
					CHANNELS 3 Xrotation Yrotation Zrotation
					JOINT newVegas:Right_Collar1
					{
						OFFSET -14.783401 10.539993 -1.259500
						CHANNELS 3 Xrotation Yrotation Zrotation
						End Site
						{
							OFFSET 0.000000 18.199631 0.000000
						}
					}
				}
			}
		}
		JOINT newVegas:Belly
		{
			OFFSET 0.000000 -6.540398 9.014299
			CHANNELS 3 Xrotation Yrotation Zrotation
			End Site
			{
				OFFSET 0.000000 11.566666 0.000000
			}
		}
	}
	JOINT newVegas:ElvisFacialAnim_Joint
	{
		OFFSET 1.000000 -95.330101 -8.825800
		CHANNELS 3 Xrotation Yrotation Zrotation
		End Site
		{
			OFFSET 0.000000 35.315800 0.000000
		}
	}
}
MOTION
Frames: 4
Frame Time: 0.033333
-1.834516 82.649017 5.536568 -9.667097 -24.644829 -2.814780 0.000001 -0.000001 -0.000000 -54.124861 0.893499 13.254120 67.227004 8.667049 0.672731 -2.496762 1.361175 -11.565162 -0.000000 0.000000 0.000000 -0.000000 -0.000001 -0.000000 -48.870451 -6.324377 5.849983 63.868955 -11.240217 -2.241640 -3.187661 -7.598060 -11.978873 0.000000 0.000002 -0.000000 0.000001 0.000002 -0.000000 46.217780 1.650717 5.816455 4.954253 0.142305 -2.566084 4.979898 -0.111952 -2.539751 -1.685554 0.709006 1.143004 -1.685543 0.709005 1.143015 0.000002 0.000000 -0.000001 -1.685521 0.709020 1.143003 -1.685509 0.708974 1.143016 -0.000001 -0.000000 -0.000002 0.000002 0.000000 -0.000001 -37.571061 -4.822516 1.545821 -61.982806 -7.386457 -82.931597 0.000052 -60.287136 0.000041 -114.258075 3.984399 35.217985 4.709227 9.560372 3.111993 19.473185 -1.474899 7.636912 0.000003 -0.000001 -0.000004 -0.212817 3.933705 -36.747131 2.942120 5.078907 -60.144604 -0.000005 0.000000 0.000000 0.405917 5.507031 -52.453158 3.387150 5.308606 -65.057449 0.000002 -0.000001 -0.000001 -0.074381 5.736762 -61.061434 4.055042 5.569513 -72.094921 0.000001 -0.000001 0.000004 -6.565553 4.545152 -72.425236 3.299619 5.267188 -64.107835 0.000004 -0.000003 -0.000005 -0.000000 -0.000002 0.000000 -0.000000 -0.000002 0.000000 -0.000000 -0.000001 0.000000 0.000001 0.000000 0.000001 0.000001 -0.000001 0.000000 0.000001 0.000000 0.000001 0.000001 -0.000000 0.000001 -41.176280 -8.605645 -9.942313 -35.667026 47.957039 90.403680 0.000842 103.553058 -0.000845 -32.886569 -12.227842 -32.126597 8.377137 -4.904138 11.022010 21.620183 -18.183924 -18.379204 0.000004 0.000000 -0.000002 -0.920036 1.683564 12.434980 0.748124 -2.533469 32.898258 -0.000000 0.000001 -0.000001 3.413067 -7.186241 51.650263 6.296797 -4.359568 110.634667 0.000000 -0.000000 -0.000003 -3.349045 -2.600428 57.010578 5.440876 -4.590883 99.698140 -0.000001 0.000001 0.000002 -3.996430 -3.303965 64.593864 4.058825 -4.618635 82.610530 -0.000001 -0.000002 -0.000002 -0.000000 0.000003 -0.000000 0.000001 0.000001 -0.000001 -0.000000 0.000003 -0.000000 -0.000001 0.000000 0.000000 -0.000001 0.000001 0.000002 -0.000001 0.000000 0.000000 -0.000001 0.000001 0.000001 0.000001 -0.000000 -0.000001 0.000001 -0.000000 -0.000001 0.000001 -0.000000 -0.000001 0.000001 -0.000000 -0.000001 0.000001 -0.000000 -0.000001 0.000001 -0.000000 -0.000001 0.000001 -0.000000 -0.000001 0.000002 0.000000 -0.000000 0.000001 -0.000001 -0.000000 
-2.744364 81.750374 -0.213036 -12.775506 -24.071289 -4.401294 0.000001 -0.000001 -0.000000 -54.206355 3.156783 12.619110 80.693658 7.857721 -0.409605 -3.343245 0.766025 -9.157059 0.000000 0.000000 0.000000 -0.000000 0.000000 0.000001 -47.109546 -6.778415 8.456600 59.810956 -11.066234 -1.925976 -0.308503 -8.931857 -12.507828 -0.000000 0.000003 0.000000 -0.000001 -0.000000 0.000000 47.153225 1.657624 6.517548 5.303192 0.193763 -2.631696 5.326279 -0.082392 -2.605912 -1.486357 0.708256 1.395349 -1.486336 0.708250 1.395351 0.000003 -0.000001 0.000001 -1.486275 0.708244 1.395359 -1.486408 0.708274 1.395354 -0.000002 0.000000 0.000002 0.000003 -0.000001 0.000001 -37.551072 -4.534377 1.586598 -61.935233 -8.184295 -83.646328 0.000004 -59.268926 -0.000002 -114.977192 5.034492 35.180064 6.303963 9.507528 2.841600 18.195421 -0.066570 7.717129 0.000002 0.000001 -0.000004 -0.197418 3.932139 -36.427158 2.957523 5.087665 -60.318234 -0.000006 -0.000001 0.000000 0.266146 5.386362 -52.220006 3.428864 5.327747 -65.507573 -0.000002 0.000001 0.000002 -0.128573 5.711102 -61.119190 4.036656 5.563557 -71.905363 -0.000003 -0.000002 -0.000002 -6.542495 4.544588 -72.386850 3.300896 5.267794 -64.121713 0.000005 -0.000005 -0.000000 0.000001 0.000001 -0.000003 0.000001 0.000001 -0.000003 0.000001 0.000001 -0.000003 -0.000001 -0.000003 0.000001 -0.000001 -0.000003 -0.000001 -0.000001 -0.000003 0.000001 -0.000001 -0.000003 0.000001 -41.257956 -9.098912 -10.438464 -35.418007 48.741637 91.304097 0.000055 104.188170 -0.000066 -32.665462 -12.373436 -34.517700 8.837967 -3.297124 11.896219 22.235829 -17.540520 -18.469648 -0.000003 -0.000000 -0.000000 -0.937128 1.751366 12.464569 0.748120 -2.533471 32.898265 -0.000000 0.000000 0.000005 3.305996 -7.088520 51.977944 6.303944 -4.356867 110.728841 -0.000000 -0.000000 -0.000003 -3.332080 -2.662975 57.385337 5.441096 -4.590829 99.701159 -0.000001 0.000001 -0.000001 -4.019523 -3.341126 64.926829 4.066101 -4.619578 82.700784 0.000000 -0.000000 -0.000000 -0.000000 0.000003 -0.000001 -0.000001 -0.000001 -0.000001 -0.000000 0.000003 -0.000001 -0.000000 0.000001 -0.000001 -0.000000 0.000002 -0.000002 -0.000000 0.000001 -0.000001 0.000000 0.000002 -0.000002 -0.000002 -0.000001 0.000001 -0.000002 -0.000001 0.000001 -0.000002 -0.000001 0.000001 -0.000002 -0.000001 0.000001 -0.000002 -0.000001 0.000001 -0.000002 -0.000001 0.000001 -0.000002 -0.000001 0.000001 0.000000 0.000000 0.000000 0.000001 -0.000001 -0.000000 
-3.258425 81.352631 -6.148533 -14.138971 -24.244059 -5.264831 0.000000 -0.000001 -0.000001 -51.447819 4.644118 13.471894 89.384746 2.900045 -1.387603 -4.532323 1.355805 -14.648205 -0.000000 -0.000000 -0.000001 -0.000001 -0.000001 0.000000 -45.883558 -6.704626 9.918672 52.010043 -10.713818 -1.364477 6.481853 -9.389244 -11.989574 0.000000 -0.000003 0.000000 -0.000000 0.000000 -0.000000 46.738711 1.788749 6.757954 5.355989 0.135935 -2.531636 5.382291 -0.136825 -2.498818 -1.343531 0.677336 1.605689 -1.343523 0.677333 1.605690 -0.000002 0.000001 -0.000001 -1.343516 0.677335 1.605692 -1.343567 0.677346 1.605692 -0.000002 0.000001 -0.000001 -0.000002 0.000001 -0.000000 -37.466200 -4.046729 1.222674 -60.157622 -8.591409 -83.999094 -0.000047 -60.154221 -0.000050 -115.458815 5.148435 35.787961 6.857496 9.386551 2.875695 17.034640 1.201388 7.773438 -0.000000 -0.000002 -0.000003 -0.245807 3.846863 -36.156849 2.953277 5.085259 -60.270177 0.000005 -0.000000 -0.000000 0.065739 5.200504 -51.733451 3.461044 5.342205 -65.853815 -0.000005 0.000000 0.000001 -0.161682 5.669224 -60.798881 4.021653 5.558644 -71.750509 -0.000001 -0.000002 -0.000002 -6.496741 4.510539 -72.151660 3.302858 5.268766 -64.143126 0.000002 -0.000005 -0.000001 -0.000000 -0.000001 -0.000000 -0.000000 -0.000001 -0.000000 -0.000000 -0.000001 0.000000 0.000002 0.000003 -0.000003 0.000002 0.000002 -0.000003 0.000002 0.000003 -0.000003 0.000000 0.000002 -0.000002 -41.399908 -9.996690 -11.280529 -34.996434 49.778948 92.842843 0.000187 104.782410 -0.000167 -32.517779 -12.819900 -35.527512 9.226634 -2.114430 12.582443 22.709308 -17.043713 -18.535730 0.000000 -0.000000 -0.000000 -0.939648 1.771304 12.445671 0.748122 -2.533469 32.898262 -0.000001 -0.000001 0.000006 3.104123 -6.935972 51.857354 6.316216 -4.352221 110.890464 0.000000 -0.000000 0.000001 -3.325132 -2.703106 57.646237 5.441181 -4.590828 99.701890 -0.000000 -0.000001 -0.000001 -4.033857 -3.366730 65.150156 4.062702 -4.619128 82.658574 -0.000000 -0.000000 -0.000001 0.000002 0.000003 -0.000000 0.000002 -0.000001 -0.000003 0.000002 0.000002 -0.000000 -0.000002 0.000000 -0.000002 -0.000002 0.000001 -0.000000 -0.000002 0.000000 -0.000002 -0.000002 0.000001 -0.000001 0.000000 0.000000 -0.000000 0.000000 0.000000 -0.000000 0.000000 0.000000 -0.000000 0.000000 0.000000 -0.000000 0.000000 0.000000 -0.000000 0.000000 0.000000 -0.000000 0.000000 0.000000 -0.000000 -0.000001 0.000000 0.000002 0.000000 -0.000001 -0.000001 
-3.354036 81.245026 -12.527590 -13.608987 -25.532716 -5.842691 0.000001 0.000000 0.000000 -46.069698 5.421971 13.582980 91.157931 -3.315631 -2.151551 -6.094485 2.231209 -21.406993 0.000001 -0.000000 0.000001 0.000001 0.000000 0.000000 -46.231614 -6.429056 9.817388 42.994992 -10.532293 -0.164886 13.999191 -8.591472 -6.496162 -0.000000 -0.000002 -0.000000 -0.000000 0.000000 -0.000002 45.030566 2.427304 6.786549 5.228581 0.055989 -2.316813 5.262303 -0.196017 -2.272495 -1.234020 0.617218 1.742643 -1.234036 0.617223 1.742632 0.000000 0.000000 -0.000001 -1.234032 0.617216 1.742644 -1.233941 0.617230 1.742638 0.000001 0.000001 -0.000003 0.000000 0.000000 -0.000000 -37.338175 -3.535738 0.576690 -57.708596 -8.171748 -84.055648 -0.000008 -62.231015 -0.000000 -115.194542 4.686311 36.900247 10.414584 8.275887 1.532097 16.577615 1.698240 7.793838 -0.000001 -0.000004 -0.000003 0.030956 4.273620 -36.964472 2.947243 5.081828 -60.202326 -0.000002 -0.000000 0.000000 0.204769 5.327296 -52.024953 3.492669 5.356210 -66.192886 -0.000003 0.000000 0.000001 0.088404 5.842305 -61.292854 4.017858 5.557399 -71.711215 0.000001 -0.000001 0.000000 -6.253054 4.689627 -72.643017 3.305505 5.270037 -64.171922 -0.000001 -0.000005 -0.000002 0.000000 0.000003 -0.000001 0.000000 0.000003 -0.000001 -0.000000 0.000003 -0.000002 -0.000001 0.000001 0.000001 -0.000001 -0.000001 0.000002 -0.000001 0.000001 0.000001 -0.000001 0.000001 0.000001 -41.396697 -10.599242 -11.485129 -34.186514 50.670865 93.587416 0.000695 105.325513 -0.000686 -32.553590 -13.756521 -35.181017 9.524009 -1.785491 12.908845 22.853687 -16.891821 -18.555001 0.000001 -0.000001 -0.000004 -0.916120 1.726946 12.290396 0.748122 -2.533468 32.898262 0.000000 0.000000 -0.000002 2.992372 -6.861912 51.460759 6.319986 -4.350795 110.939969 0.000000 -0.000000 0.000002 -3.330791 -2.691047 57.584362 5.440934 -4.590880 99.699049 -0.000001 0.000001 0.000002 -4.029981 -3.348981 65.015075 4.055537 -4.618211 82.569672 0.000001 0.000002 -0.000002 -0.000000 0.000004 0.000002 -0.000001 0.000000 0.000000 -0.000000 0.000004 0.000002 -0.000002 0.000001 0.000004 -0.000002 0.000002 0.000002 -0.000002 0.000001 0.000004 -0.000002 0.000002 0.000003 -0.000000 -0.000000 -0.000000 -0.000000 -0.000000 -0.000000 -0.000000 -0.000000 -0.000000 -0.000000 -0.000000 -0.000000 -0.000000 -0.000000 -0.000000 -0.000000 -0.000000 -0.000000 -0.000000 -0.000000 -0.000000 -0.000002 0.000001 -0.000002 0.000001 0.000000 0.000000 
